<svg id="Group_5222" data-name="Group 5222" xmlns="http://www.w3.org/2000/svg" width="20.381" height="25" viewBox="0 0 20.381 25">
  <path id="Path_2731" data-name="Path 2731" d="M298.023,120.039a5.5,5.5,0,0,1,4.032-2.234,5.483,5.483,0,0,1-1.327,4.1,4.336,4.336,0,0,1-3.823,1.8A4.768,4.768,0,0,1,298.023,120.039Z" transform="translate(-286.838 -117.805)" fill="#fff" fill-rule="evenodd"/>
  <path id="Path_2732" data-name="Path 2732" d="M60.959,265.335c.845,0,2.413-1.152,4.455-1.152a5.587,5.587,0,0,1,4.9,2.479,5.381,5.381,0,0,0-2.7,4.7,5.527,5.527,0,0,0,3.368,5.044s-2.354,6.57-5.535,6.57c-1.461,0-2.6-.976-4.135-.976-1.568,0-3.125,1.012-4.138,1.012-2.9,0-6.573-6.233-6.573-11.242,0-4.929,3.105-7.515,6.018-7.515C58.505,264.252,59.975,265.335,60.959,265.335Z" transform="translate(-50.594 -258.009)" fill="#fff" fill-rule="evenodd"/>
</svg>
