<svg xmlns="http://www.w3.org/2000/svg" width="151.041" height="105.728" viewBox="0 0 151.041 105.728">
  <path id="Icon_awesome-cloud-upload-alt" data-name="Icon awesome-cloud-upload-alt" d="M126.874,48.176a22.683,22.683,0,0,0-21.146-30.822A22.541,22.541,0,0,0,93.15,21.177,37.763,37.763,0,0,0,22.656,40.01c0,.637.024,1.274.047,1.912a33.993,33.993,0,0,0,11.281,66.057h86.848a30.206,30.206,0,0,0,6.042-59.8ZM92.843,62.666H77.408V89.1a3.787,3.787,0,0,1-3.776,3.776H62.3A3.787,3.787,0,0,1,58.528,89.1V62.666H43.094a3.769,3.769,0,0,1-2.667-6.443L65.3,31.349a3.789,3.789,0,0,1,5.334,0L95.51,56.223a3.774,3.774,0,0,1-2.667,6.443Z" transform="translate(0 -2.25)" fill="#e0e0e0"/>
</svg>
