<svg xmlns="http://www.w3.org/2000/svg" width="440.399" height="195.052" viewBox="0 0 440.399 195.052">
  <g id="Group_5454" data-name="Group 5454" transform="translate(-106.482 -114)">
    <text id="Lovers" transform="translate(130.487 291.052)" fill="#fff" font-size="61" font-family="CooperBlackStd, Cooper Std"><tspan x="0" y="0">Lovers</tspan></text>
    <g id="Group_5352" data-name="Group 5352" transform="translate(322.645 114)">
      <path id="Path_2742" data-name="Path 2742" d="M3220.616,1691.178c.028-.4.058-.8.08-1.2.062-1.182.1-2.346.1-3.471,0-.019,0-.036,0-.054l0-.042c0-42.74-39.072-77.39-87.271-77.39s-87.271,34.65-87.271,77.39,39.071,77.389,87.271,77.389h.011v23.73c59.3-15.781,83.157-61.651,86.754-92.824.042-.333.071-.669.11-1C3220.486,1692.846,3220.557,1692.008,3220.616,1691.178Z" transform="translate(-3028.876 -1609.018)" fill="#f54d71"/>
      <path id="Path_2743" data-name="Path 2743" d="M3105.719,1700.917c-.95-10.626-10.493-18.647-21.73-18.26a19.415,19.415,0,0,0-15.97,9.513,19.813,19.813,0,0,0-1.142,2.2A19.693,19.693,0,0,0,3049,1683.861c-11.235.386-20.205,9.044-20.422,19.71-.334,16.305,12.57,23.321,20.358,27.973,12.514,7.474,18.176,14.1,18.221,14.159a1.8,1.8,0,0,0,2.97-.1c.041-.063,5.232-7.061,17.2-15.379C3094.781,1725.046,3107.174,1717.161,3105.719,1700.917Z" transform="translate(-3028.572 -1610.282)" fill="#fff"/>
      <path id="Path_2744" data-name="Path 2744" d="M3209.394,1625.116h-51.132c-41.344,0-56.064,65.166-35.96,65.166,7.14,0,12.35-1.542,16.1-3.537v-29.661a2.84,2.84,0,1,1,5.68,0v32.241l-.795.828a32.035,32.035,0,0,0-1.286,42.177,31.871,31.871,0,0,0,24.57,11.55,3.5,3.5,0,0,0,.876-.13c2.595-.683,5.744-4.073,8.342-6.864a54.512,54.512,0,0,1,4.566-4.556c.188-.158.372-.311.561-.459v-11a16.821,16.821,0,1,1,19.7-16.567,16.825,16.825,0,0,1-13.873,16.567v11c.176.148.355.3.533.459a64.2,64.2,0,0,1,4.575,4.556c2.6,2.792,5.73,6.181,8.325,6.864a3.441,3.441,0,0,0,.876.13,31.874,31.874,0,0,0,24.577-11.55,32.063,32.063,0,0,0-1.276-42.177l-.777-.828v-32.241a2.847,2.847,0,0,1,5.694,0v29.661c3.734,2,8.958,3.537,16.1,3.537C3265.455,1690.282,3250.722,1625.116,3209.394,1625.116Zm-30.9,42.724a5.673,5.673,0,1,1,0-.21Zm20.4,3.423a5.5,5.5,0,0,1-4.073,1.917h-.131a5.563,5.563,0,0,1-5.563-5.356v-.211a5.608,5.608,0,0,1,5.582-5.55h.129a5.556,5.556,0,0,1,4.056,9.2Z" transform="translate(-3030.03 -1609.295)" fill="#fff"/>
    </g>
    <text id="Puppi" transform="translate(106.482 229.609)" fill="#fff" font-size="61" font-family="CooperBlackStd, Cooper Std"><tspan x="0" y="0">Puppi</tspan></text>
  </g>
</svg>
