<svg xmlns="http://www.w3.org/2000/svg" xmlns:xlink="http://www.w3.org/1999/xlink" width="1920" height="1080" viewBox="0 0 1920 1080">
  <defs>
    <clipPath id="clip-Login_SignUp_-_Why_are_you_using_the_app_">
      <rect width="1920" height="1080"/>
    </clipPath>
  </defs>
  <g id="Login_SignUp_-_Why_are_you_using_the_app_" data-name="Login/SignUp - Why are you using the app?" clip-path="url(#clip-Login_SignUp_-_Why_are_you_using_the_app_)">
    <rect width="1920" height="1080" fill="#fafafa"/>
    <path id="Path_6861" data-name="Path 6861" d="M3314.264,766.519c-12.1-17.346-36.677-28.489-62.42-36.071-61.352-18.075-130.653-26.445-197.182-30.814-73.667-4.836-146.933-2.575-220.63.4-37.442,1.513-75.059,2.634-112.519.733-38.779-1.969-76.666-7.778-114.564-13.227-138.667-19.939-277.973-17.84-418.292-7.129-143.5,10.954-286.041,28.737-430.637,32.56q-47.736,1.262-95.485.188c-.393-1.609-2.06-2.971-5.416-3.3-67.026-6.551-135.391-4.011-200.552,8.471-50.689,9.71-114.758,25.541-137.459,59.995-23.136,35.112,14.455,70.908,61.981,86.306,58.777,19.041,131.4,20.133,195.545,22.292,151.792,5.113,303.706,8.971,455.543,13.432,151.439,4.447,301.849,9.238,453.316,2.45,148.921-6.674,298.211-14.34,446.628-24.863,71.145-5.044,142.167-11.583,211.961-22.115,33.991-5.129,67.682-11.189,100.758-18.465,23.847-5.244,50.059-11.35,65.45-25.292C3325.134,798.631,3324.5,781.187,3314.264,766.519Z" transform="translate(-1346.974 270.676)" fill="#f5e4d5"/>
    <g id="Group_6510" data-name="Group 6510" transform="translate(74.999 -56.621)">
      <g id="Group_6509" data-name="Group 6509" transform="translate(48.001 647.508)">
        <g id="Group_6505" data-name="Group 6505" transform="translate(177.015 212.762)">
          <g id="Group_6503" data-name="Group 6503">
            <path id="Path_5228" data-name="Path 5228" d="M222.869,361.745c-7.476,18.84-31.4,29.9-40.073,39.176s-13.756,25.12-7.775,39.474,21.083,14.8,23.326,17.345,4.935,10.168,10.467,12.56l48.746.15s-2.691-4.935-4.037-6.131-7.626-4.187-11.513-2.243-19.439,1.645-23.924-2.242,9.12-27.887,20.111-42.69c14.888-20.054-4.785-19.588-8.075-21.083,0,0,10.99-17.345,16.373-18.84,8.673,14.653,9.42,62.016,12.56,71.884s10.99,19.289,16.934,21.083c.561-.112,12.784.112,14.467-.112.449-2.018-4.71-12-6.953-12s-4.711.785-9.2-2.355c-18.616-24-6.505-91.734,2.691-106.537Z" transform="translate(-100.492 -234.19)" fill="#823d1b"/>
            <path id="Path_5229" data-name="Path 5229" d="M315.969,501.728a.237.237,0,0,0,.073-.012.225.225,0,0,0,.139-.285c-.291-.847-2.887-8.3-4.615-8.994a.224.224,0,1,0-.166.417c1.3.52,3.586,6.474,4.357,8.724A.224.224,0,0,0,315.969,501.728Z" transform="translate(-131.388 -266.066)" fill="#2e0b06"/>
            <path id="Path_5230" data-name="Path 5230" d="M144.412,444.783c-15.551,17.046-54.128-2.094-64.3-22.13-1.2,2.991,2.99,13.757,2.99,13.757-2.99-2.094-3.589-2.393-2.99.3s3.589,23.027,19.737,29.606c-4.785-.3-9.27-4.486-8.373-2.094s14.055,14.953,32.9,11.963a37.7,37.7,0,0,0,26.615-18.242Z" transform="translate(-79.901 -250.54)" fill="#96461f"/>
            <path id="Path_5231" data-name="Path 5231" d="M94.321,447.026c-2.692-.449-4.635-2.392-4.037-.9s11.215,16.6,36.335,18.392c-8.673.6-12.86-1.346-11.663.449s21.831,4.635,32.6-4.784a30.487,30.487,0,0,1,3.284-2.553l.156.31a37.7,37.7,0,0,1-26.615,18.242c-18.841,2.99-32-9.57-32.9-11.963s3.588,1.794,8.373,2.094c-16.149-6.579-19.139-26.915-19.737-29.606s0-2.392,2.99-.3c0,0-4.187-10.766-2.99-13.757C80.116,424.447,86.4,440.3,94.321,447.026Z" transform="translate(-79.901 -250.54)" fill="#ffcfa8"/>
            <path id="Path_5232" data-name="Path 5232" d="M233.555,216.77c2.766-4.635,11.589-12.709,19.139-12.411-.9.673-2.392,1.869-2.318,2.468s9.346,4.859,13.308,7.625,20.037-7.252,21.233-7.327,6.13,6.056,5.756,10.542l.869,2.2s.477,3.841.449,4.795a19.665,19.665,0,0,1-2.215,8.224c1.608,2.8,1.794,5.756.673,6.056s-3.589,2.878-14.13,5.346-12.859,10.391-12.112,17.046,4.935,19.513,10.093,35.213,3.589,22.2-5.607,37.008-25.12,65.941-6.5,89.94c4.486,3.139,6.953,2.355,9.2,2.355s7.4,9.981,6.953,12c-1.682.224-13.906,0-14.466.112-5.944-1.794-13.794-11.214-16.934-21.083s.3-45.194-8.374-59.848c-5.383,1.5-7.476,7.775-7.476,7.775,3.289,1.5,6.28,9.869-4.187,23.925s-25.42,34.989-20.934,38.877,20.037,4.187,23.924,2.242,10.168,1.047,11.513,2.243,4.037,6.131,4.037,6.131l-48.745-.15c-5.532-2.392-8.224-10.017-10.467-12.56s-17.345-2.991-23.326-17.345-.9-30.2,7.775-39.475,32.6-20.336,40.072-39.176,9.57-35.886,13.458-44.26,8.074-17.345,8.074-17.345,4.486-34.989,4.486-36.185S233.555,216.77,233.555,216.77Z" transform="translate(-97.795 -201.958)" fill="#a65229"/>
            <path id="Path_5233" data-name="Path 5233" d="M288.766,228.7c4.99-3.475,0-12.468-7.01-17.819a82.664,82.664,0,0,1,7.608,4.361c3.963,2.766,20.037-7.252,21.233-7.327s6.13,6.056,5.756,10.542l.869,2.2s.477,3.841.449,4.795a19.664,19.664,0,0,1-2.215,8.224c1.608,2.8,1.794,5.756.673,6.056s-3.589,2.878-14.13,5.346-12.859,10.392-12.112,17.046,4.934,19.513,10.093,35.213,3.589,22.2-5.607,37.008a89.613,89.613,0,0,0-7.562,17.067l-.064-.021c5.608-17.719,3.14-37.232-4.261-61.455s-7.513-28.821-6.056-43.063S282.486,233.078,288.766,228.7Z" transform="translate(-123.474 -202.752)" fill="#ffcfa8"/>
            <path id="Path_5234" data-name="Path 5234" d="M286.488,286.846c-5.308,1.57-23.85-1.122-29.083-3.813s3.364-5.008,3.364-5.008Z" transform="translate(-119.028 -218.354)" fill="#ebbeb0" style="mix-blend-mode: multiply;isolation: isolate"/>
            <path id="Path_5235" data-name="Path 5235" d="M286.863,285.743c-10.056-.112-21.606-5.046-26.092-7.962s-.112-5.047-.112-5.047l2.467,1.794c.673,1.683,16.037,7.963,24.186,6.8l5.084-1.084s3.813.9,3.589,1.514-.729,2.972-1.065,3.252a7.515,7.515,0,0,1-2.972.953A36.479,36.479,0,0,1,286.863,285.743Z" transform="translate(-119.703 -217.177)" fill="#30686e"/>
            <path id="Path_5236" data-name="Path 5236" d="M250.443,218.979c9.468,1.272,21.74,35.262,1.352,55.4a2.336,2.336,0,0,1-3.968-1.4c-.908-7.965-4.515-21.731-6.056-24.694-1.944-3.738,1.794-7.027,4.187-10.765S247.9,220.176,250.443,218.979Z" transform="translate(-115.804 -205.214)" fill="#2e0b06"/>
            <path id="Path_5237" data-name="Path 5237" d="M249.6,253.815a.223.223,0,0,0,.19-.1c1.573-2.5,3.739-7.957.581-16.459a.224.224,0,1,0-.421.156c3.09,8.321.988,13.636-.54,16.063a.224.224,0,0,0,.19.344Z" transform="translate(-117.617 -209.248)" fill="#571911"/>
            <ellipse id="Ellipse_446" data-name="Ellipse 446" cx="1.234" cy="3" rx="1.234" ry="3" transform="matrix(0.834, -0.551, 0.551, 0.834, 155.656, 16.474)" fill="#2e0b06"/>
            <path id="Path_5238" data-name="Path 5238" d="M283.569,230.217a4.127,4.127,0,0,0,2.06-.578.224.224,0,0,0-.224-.389,3.307,3.307,0,0,1-4.742-1.265.224.224,0,1,0-.387.227A3.8,3.8,0,0,0,283.569,230.217Z" transform="translate(-124.487 -207.193)" fill="#2e0b06"/>
            <path id="Path_5239" data-name="Path 5239" d="M307.03,244.606a14.936,14.936,0,0,0,11.018-4.445c5.762-6.094,5.436-14.863,3.4-18.871a.224.224,0,1,0-.4.2c1.976,3.894,2.286,12.423-3.328,18.36-5.634,5.959-15.25,4.981-19.663,1.657a.224.224,0,0,0-.27.358A15.877,15.877,0,0,0,307.03,244.606Z" transform="translate(-128.371 -205.7)" fill="#2e0b06"/>
            <path id="Path_5240" data-name="Path 5240" d="M295.424,249.084a.22.22,0,0,0,.106-.028.224.224,0,0,0,.09-.3,5.713,5.713,0,0,1-.289-4.565,2.433,2.433,0,0,1,1.766-1.445.224.224,0,1,0-.1-.438,2.9,2.9,0,0,0-2.079,1.7,6.127,6.127,0,0,0,.3,4.966A.224.224,0,0,0,295.424,249.084Z" transform="translate(-127.665 -210.403)" fill="#2e0b06"/>
            <path id="Path_5241" data-name="Path 5241" d="M317,217.266c-1.862,1.34-9.509-.287-12.524-3.33,5.637-2.291,11.8-5.971,12.524-6.016,1.2-.075,6.13,6.056,5.756,10.542h0C321.189,218.387,318.871,215.92,317,217.266Z" transform="translate(-129.88 -202.752)" fill="#2e0b06"/>
            <path id="Path_5242" data-name="Path 5242" d="M318.261,218.024h.015a.225.225,0,0,0,.21-.238c0-.016-.084-1.533,1.043-2.023a2.431,2.431,0,0,1,1.572-.026,1.6,1.6,0,0,0,1.637-.246.224.224,0,0,0-.317-.317c-.3.3-.647.249-1.226.124a2.863,2.863,0,0,0-1.845.053,2.569,2.569,0,0,0-1.312,2.464A.224.224,0,0,0,318.261,218.024Z" transform="translate(-132.896 -204.352)" fill="#5c261f"/>
            <circle id="Ellipse_447" data-name="Ellipse 447" cx="0.589" cy="0.589" r="0.589" transform="translate(188.982 19.251)" fill="#e6b68e"/>
            <circle id="Ellipse_448" data-name="Ellipse 448" cx="0.589" cy="0.589" r="0.589" transform="translate(191.113 17.177)" fill="#e6b68e"/>
            <circle id="Ellipse_449" data-name="Ellipse 449" cx="0.589" cy="0.589" r="0.589" transform="translate(185.281 17.177)" fill="#e6b68e"/>
            <circle id="Ellipse_450" data-name="Ellipse 450" cx="0.589" cy="0.589" r="0.589" transform="translate(186.066 24.915)" fill="#e6b68e"/>
            <circle id="Ellipse_451" data-name="Ellipse 451" cx="0.589" cy="0.589" r="0.589" transform="translate(190.72 24.915)" fill="#e6b68e"/>
            <path id="Path_5243" data-name="Path 5243" d="M270.883,207.338l.034,0a.226.226,0,0,0,.191-.211c.077-1.693.835-5.612,6.271-5.393a.227.227,0,0,0,.233-.215.225.225,0,0,0-.215-.233c-4.759-.192-6.171,2.7-6.58,4.608a4.746,4.746,0,0,1,.973-4.15.224.224,0,1,0-.317-.317c-2.1,2.1-.854,5.618-.8,5.767A.224.224,0,0,0,270.883,207.338Z" transform="translate(-122.264 -201.273)" fill="#2e0b06"/>
            <path id="Path_5244" data-name="Path 5244" d="M244.715,404.46s-4.486-6.728-23.177-6.28c1.2-2.094,17.794-16.747,22.429-15.551s3.738,7.327,8.224,14.056C246.808,398.181,244.715,404.46,244.715,404.46Z" transform="translate(-111.422 -241.618)" fill="#ffcfa8"/>
            <path id="Path_5245" data-name="Path 5245" d="M303.852,501.728a.236.236,0,0,0,.073-.012.224.224,0,0,0,.139-.285c-.29-.847-2.887-8.3-4.614-8.994a.224.224,0,1,0-.166.417c1.3.52,3.586,6.474,4.356,8.724A.225.225,0,0,0,303.852,501.728Z" transform="translate(-128.692 -266.066)" fill="#2e0b06"/>
            <path id="Path_5246" data-name="Path 5246" d="M261.988,503.022a.224.224,0,0,0,.171-.368c-.164-.2-.339-.407-.523-.63-1.845-2.23-4.633-5.6-7.3-5.281a.224.224,0,0,0-.2.25.221.221,0,0,0,.249.2c2.429-.294,5.119,2.965,6.9,5.12.185.224.361.436.526.633A.226.226,0,0,0,261.988,503.022Z" transform="translate(-118.677 -267.024)" fill="#2e0b06"/>
          </g>
          <g id="Group_6504" data-name="Group 6504" transform="translate(164.431 68.833)">
            <path id="Path_5247" data-name="Path 5247" d="M298.827,293.385l.224.442s.1.557.083.582-.352.358-.352.358l-.192.019a.539.539,0,0,1-.045-.224c0-.135-.006-1.127-.006-1.127Z" transform="translate(-292.989 -290.605)" fill="#6e6e6e"/>
            <path id="Path_5248" data-name="Path 5248" d="M291.4,294.08c0-1.322.722-2.393,1.614-2.393l.845-.054.769,2.447a3.577,3.577,0,0,1-.028.413h1.556a1.083,1.083,0,0,1-.273-.76c0-.505.277-.915.617-.915l.5-.04-.083.274a1.148,1.148,0,0,1,.205.682,1.083,1.083,0,0,1-.273.76H298.4a3.394,3.394,0,0,1-.03-.413c0-1.322.723-2.393,1.615-2.393s1.614,1.071,1.614,2.393a3.025,3.025,0,0,1-.5,1.723,3.029,3.029,0,0,1,.5,1.724c0,1.321-.723,2.393-1.614,2.393s-1.615-1.072-1.615-2.393a3.4,3.4,0,0,1,.03-.413h-3.8a3.576,3.576,0,0,1,.028.413c0,1.321-.723,2.393-1.614,2.393s-1.614-1.072-1.614-2.393a3.03,3.03,0,0,1,.5-1.724A3.026,3.026,0,0,1,291.4,294.08Z" transform="translate(-291.4 -290.215)" fill="#828282"/>
            <path id="Path_5249" data-name="Path 5249" d="M293.112,295.749a3.216,3.216,0,0,0-.458,1.723c0,1.322.665,2.393,1.484,2.393s1.485-1.071,1.485-2.393a3.771,3.771,0,0,0-.026-.413h3.5a3.785,3.785,0,0,0-.027.413c0,1.322.665,2.393,1.485,2.393s1.484-1.071,1.484-2.393a3.216,3.216,0,0,0-.458-1.723,3.217,3.217,0,0,0,.458-1.723c0-1.322-.665-2.393-1.484-2.393s-1.485,1.071-1.485,2.393a3.769,3.769,0,0,0,.027.413h-1.432a1.14,1.14,0,0,0,.251-.76c0-.505-.254-.916-.568-.916s-.567.41-.567.916a1.14,1.14,0,0,0,.251.76H295.6a3.756,3.756,0,0,0,.026-.413c0-1.322-.665-2.393-1.485-2.393s-1.484,1.071-1.484,2.393A3.217,3.217,0,0,0,293.112,295.749Zm4.544-2.07c0,.278-.139.5-.312.5s-.311-.225-.311-.5.139-.5.311-.5S297.656,293.4,297.656,293.679Z" transform="translate(-291.679 -290.215)" fill="#cacaca"/>
            <rect id="Rectangle_1649" data-name="Rectangle 1649" width="0.312" height="3.159" transform="translate(5.822 3.159) rotate(-180)" fill="#30686e"/>
          </g>
        </g>
        <g id="Group_6494" data-name="Group 6494" transform="translate(0 0)">
          <path id="Path_3430" data-name="Path 3430" d="M543.968,589.815s14.507-2.544,17.746,3.219,3.053,9.315,3.263,16.273c.286,9.3,5.008,13.5,4.222,17.371-.762,3.757-5.518,1.332-6.958,3.865s.946,18.233-10.171,16.859a25.8,25.8,0,0,1-21.835-11.422C522.385,623.758,515.151,592.6,543.968,589.815Z" transform="translate(-417.487 -573.048)" fill="#fbd3ae"/>
          <g id="Group_5794" data-name="Group 5794" transform="translate(136.098 56.515)">
            <path id="Path_3432" data-name="Path 3432" d="M541.45,609.836A6.611,6.611,0,0,1,534.9,606a.956.956,0,1,1,1.692-.888.68.68,0,0,1,.047.1,4.694,4.694,0,0,0,4.659,2.725h0a.959.959,0,0,1,.21,1.905Z" transform="translate(-534.789 -604.596)" fill="#f4a875"/>
          </g>
          <path id="Path_3433" data-name="Path 3433" d="M536.055,601.26c-.095,1.689.7,3.111,1.771,3.171s2.023-1.261,2.118-2.953-.7-3.111-1.774-3.172S536.149,599.567,536.055,601.26Z" transform="translate(-396.644 -558.321)" fill="#292e4e"/>
          <path id="Path_3435" data-name="Path 3435" d="M535.247,598.244c.116-.736,5.836-3,7.56-1.613C545.118,598.494,534.858,600.73,535.247,598.244Z" transform="translate(-397.964 -561.764)" fill="#292e4e"/>
          <path id="Path_5149" data-name="Path 5149" d="M568.37,677.076c7.977,12.063,8.965,25.858,1.855,24.922-21.98-2.9-16.207-15.9-17.841-23.356C552.384,678.642,563.575,669.829,568.37,677.076Z" transform="translate(-370.054 -434.768)" fill="#fbd3ae"/>
          <path id="Path_5150" data-name="Path 5150" d="M628.027,779.633a2.838,2.838,0,0,1-2.551,3.492c-4.509.644-8.742.683-13.75,3S601.644,782.7,594.77,781.9s-15.886,2.772-21.383-.651-2.125-14.722-15.729-42.987l14.213-5s10.337,28.123,25.482,37.012C613.993,780.041,626.726,773.38,628.027,779.633Z" transform="translate(-361.47 -338.668)" fill="#fbd3ae"/>
          <path id="Path_5151" data-name="Path 5151" d="M524.757,797.325a2.84,2.84,0,0,1-4.275.665c-3.642-2.733-6.663-5.7-11.84-7.6s-4.709-9.549-9.007-14.972-13.193-9.275-14.659-15.581,21.593-30.908,21.659-38.444l12.147,8.813s-11.672,19.767-9.1,38.814C512.268,788.136,528.26,791.98,524.757,797.325Z" transform="translate(-479.875 -357.993)" fill="#fbd3ae"/>
          <path id="Path_5152" data-name="Path 5152" d="M668.057,881.383s27.668.62,29.1-7.591-29.763-62.7-37.49-86.4c-9.528-29.216-22.363-97.727-26.2-110.568-4.583-15.306-11.335-18.177-17.9-19.326s-52.281-11.225-55.639,4.309-4.333,96.151-15.716,109.638-50.118,56.511-54.872,69.852c-2.084,5.852,27.689,17.881,31.62,12.878,6.608-8.408,27.926-25.79,43.678-44s30.821-62.668,33.336-77.059c0,0,18.009,54.9,27.718,77.14C648.029,861.443,656.235,882.484,668.057,881.383Z" transform="translate(-472.846 -468.932)" fill="#ad7878"/>
          <path id="Path_5153" data-name="Path 5153" d="M630.4,780.507l-4.7-8.713s-5.229-1.393-7.841-10.276,2.3-12.518-9.783-24.862c0,0,0,1.915-7.142,1.569s-39.372-1.046-59.756,0-29.442-33.449-34.319-50.523-8.984-72.681,32.3-75.469,68.913,5.087,81.457,28.78,21.951,48.781,18.989,70.209,7.318,21.255,4.53,37.63,7.265,22.5,2.735,28.251S630.992,781.608,630.4,780.507Z" transform="translate(-449.016 -536.523)" fill="#2b2e4e"/>
          <path id="Path_5154" data-name="Path 5154" d="M519.751,614.566c.641-5.975,38.523-1.671,37.882,4.3s-9.068,9.964-18.813,8.915S519.108,620.538,519.751,614.566Z" transform="translate(-423.214 -536.523)" fill="#fbd3ae"/>
          <path id="Path_5155" data-name="Path 5155" d="M561.278,747.093S557.7,771.769,569,772.176s25.235-1.267,42.4-.589c16.94.67,17.791-10.671,3.673-13.966s-25.359-2.972-30.74-11.711-9.932,8.542-15.08,6.4S564.736,743.01,561.278,747.093Z" transform="translate(-356.456 -322.127)" fill="#2b2e4e"/>
          <path id="Path_5156" data-name="Path 5156" d="M497.035,729.845s-19.98,14.917-12.273,23.2,18.74,16.945,30.4,29.563c11.5,12.452,20.125,5.035,12.471-7.278S511.8,755.3,514.174,745.311s-13.064-.983-15.187-6.138S502.369,729.4,497.035,729.845Z" transform="translate(-482.993 -344.277)" fill="#2b2e4e"/>
          <path id="Path_5157" data-name="Path 5157" d="M562.859,678.4s4.514,9.1,1.8,12.594-3.413-9-6.364-11.564Z" transform="translate(-360.438 -427.955)" fill="#fbd3ae"/>
          <g id="Group_6475" data-name="Group 6475" transform="translate(94.039 85.606)">
            <path id="Path_5158" data-name="Path 5158" d="M529.743,625.643a.93.93,0,0,0,.381-1.779,24.258,24.258,0,0,1-9.659-7.817.931.931,0,0,0-1.5,1.1,26.1,26.1,0,0,0,10.4,8.413A.9.9,0,0,0,529.743,625.643Z" transform="translate(-518.782 -615.667)" fill="#1d1f38"/>
          </g>
          <path id="Path_5159" data-name="Path 5159" d="M566.744,609.782s7.139.646,9.3-5.047c2.346-6.164-.1-15.96-9.267-15.421s-7.3,4.559-21.055-3.064c-9.494-5.26-11.585,1.661-11.585,1.661S526.7,585.1,522.5,591.738c-6.5,10.266.657,33.98,5.3,35.562s9-10.776,10.949-11.057,4.278,3.482,8.553.775S542.9,598.864,566.744,609.782Z" transform="translate(-422.94 -581.153)" fill="#292e4e"/>
          <path id="Path_5160" data-name="Path 5160" d="M536.3,601.843s-.728-8.9-7.754-7.623-3.366,14.622,1.671,16.212S536.3,601.843,536.3,601.843Z" transform="translate(-415.197 -565.174)" fill="#fbd3ae"/>
          <g id="Group_6476" data-name="Group 6476" transform="translate(110.882 31.689)">
            <path id="Path_5161" data-name="Path 5161" d="M526.127,600.417a.931.931,0,0,0,.914-.765c.268-1.5.751-2.446,1.324-2.609.815-.236,2.21.906,2.712,1.466a.93.93,0,1,0,1.385-1.243c-.242-.271-2.465-2.635-4.6-2.015-1.34.378-2.233,1.75-2.651,4.07a.933.933,0,0,0,.752,1.082A1.217,1.217,0,0,0,526.127,600.417Z" transform="translate(-525.192 -595.148)" fill="#f7bc94"/>
          </g>
          <path id="Path_5162" data-name="Path 5162" d="M565.592,591.531s-31.938,31.8-40.286,33.559-6.84-9.354-3.752-12.118c0,0-5.04-20.277,8.676-28.257,7.6-4.422,23.435,1.569,23.435,1.569S560.915,583.8,565.592,591.531Z" transform="translate(-424.226 -583.088)" fill="#e1644c"/>
          <g id="Group_6477" data-name="Group 6477" transform="translate(104.804 6.639)">
            <path id="Path_5163" data-name="Path 5163" d="M523.811,603.124a.947.947,0,0,0,.6-.221c4.829-4.107,9.617-8.39,14.228-12.728a17.777,17.777,0,0,0,2.811-3.116.931.931,0,1,0-1.555-1.022,16.364,16.364,0,0,1-2.533,2.78c-4.585,4.32-9.352,8.582-14.16,12.668a.93.93,0,0,0,.6,1.64Z" transform="translate(-522.879 -585.614)" fill="#cf553e"/>
          </g>
          <g id="Group_6478" data-name="Group 6478" transform="translate(147.048 175.689)">
            <path id="Path_5164" data-name="Path 5164" d="M539.888,662.826a.935.935,0,0,0,.862-.578,26.746,26.746,0,0,0,1.958-11.4.892.892,0,0,0-.975-.885.929.929,0,0,0-.883.975,24.945,24.945,0,0,1-1.824,10.6.933.933,0,0,0,.51,1.217A.911.911,0,0,0,539.888,662.826Z" transform="translate(-538.956 -649.951)" fill="#1d1f38"/>
          </g>
          <g id="Group_6479" data-name="Group 6479" transform="translate(178.345 226.402)">
            <path id="Path_5165" data-name="Path 5165" d="M551.8,676.823a.967.967,0,0,0,.281-.045,40.715,40.715,0,0,0,11.611-5.847.926.926,0,0,0,.21-1.3.937.937,0,0,0-1.3-.208A38.943,38.943,0,0,1,551.515,675a.931.931,0,0,0,.284,1.818Z" transform="translate(-550.867 -669.251)" fill="#1d1f38"/>
          </g>
          <g id="Group_6480" data-name="Group 6480" transform="translate(151.707 111.424)">
            <path id="Path_5166" data-name="Path 5166" d="M548.3,677.666a.894.894,0,0,0,.187-.018.931.931,0,0,0,.728-1.1c-.733-3.65-1.658-7.31-2.551-10.852-1.164-4.614-2.365-9.386-3.15-14.136-1.637-9.9-1.088-18,1.676-24.783a.93.93,0,1,0-1.724-.7c-2.9,7.1-3.487,15.542-1.789,25.787.8,4.83,2.01,9.638,3.182,14.289.888,3.521,1.805,7.16,2.53,10.765A.936.936,0,0,0,548.3,677.666Z" transform="translate(-540.729 -625.493)" fill="#1d1f38"/>
          </g>
          <g id="Group_6481" data-name="Group 6481" transform="translate(74.633 104.446)">
            <path id="Path_5167" data-name="Path 5167" d="M522.633,674.119a.846.846,0,0,1-.184.032.931.931,0,0,1-1-.851c-.3-3.713-.42-7.486-.539-11.136-.152-4.756-.313-9.675-.867-14.46-1.153-9.964-3.918-17.6-8.442-23.359a.931.931,0,0,1,1.464-1.151c4.745,6.033,7.633,13.979,8.829,24.3.565,4.861.725,9.817.88,14.612.116,3.626.237,7.378.533,11.046A.931.931,0,0,1,522.633,674.119Z" transform="translate(-511.397 -622.838)" fill="#1d1f38"/>
          </g>
          <g id="Group_6482" data-name="Group 6482" transform="translate(124.465 242.29)">
            <path id="Path_5168" data-name="Path 5168" d="M531.3,699.5a.931.931,0,0,0,.912-.746c1.513-7.4,2.9-14.922,4.117-22.374a.929.929,0,0,0-.767-1.069.943.943,0,0,0-1.069.77c-1.217,7.428-2.6,14.93-4.107,22.3a.932.932,0,0,0,.725,1.1A1.132,1.132,0,0,0,531.3,699.5Z" transform="translate(-530.362 -675.298)" fill="#8c5d5e"/>
          </g>
          <g id="Group_6483" data-name="Group 6483" transform="translate(200.825 401.2)">
            <path id="Path_5169" data-name="Path 5169" d="M560.353,737.639h6.519a.931.931,0,0,0,0-1.863h-6.519a.931.931,0,0,0,0,1.863Z" transform="translate(-559.423 -735.776)" fill="#8c5d5e"/>
          </g>
          <g id="Group_6484" data-name="Group 6484" transform="translate(31.325 368.944)">
            <path id="Path_5170" data-name="Path 5170" d="M503.334,728.971a.931.931,0,0,0,.181-1.845,15.72,15.72,0,0,1-7.065-3.405.931.931,0,0,0-1.206,1.419,17.555,17.555,0,0,0,7.906,3.813A1.133,1.133,0,0,0,503.334,728.971Z" transform="translate(-494.915 -723.5)" fill="#8c5d5e"/>
          </g>
          <g id="Group_6485" data-name="Group 6485" transform="translate(208.964 442.829)">
            <path id="Path_5171" data-name="Path 5171" d="M584.018,754.9a230.613,230.613,0,0,0,25.464-1.409.932.932,0,0,0,.825-1.027.889.889,0,0,0-1.03-.822,229.422,229.422,0,0,1-45.743.478.915.915,0,0,0-1.009.843.931.931,0,0,0,.844,1.012C570.223,754.588,577.123,754.9,584.018,754.9Z" transform="translate(-562.521 -751.619)" fill="#ded0c8"/>
          </g>
          <g id="Group_6486" data-name="Group 6486" transform="translate(6.906 407.414)">
            <path id="Path_5172" data-name="Path 5172" d="M516.561,770.523a.932.932,0,0,0,.665-1.585l-30.01-30.517a.929.929,0,1,0-1.327,1.3L515.9,770.242A.925.925,0,0,0,516.561,770.523Z" transform="translate(-485.621 -738.141)" fill="#ded0c8"/>
          </g>
          <g id="Group_6487" data-name="Group 6487" transform="translate(192.346 246.814)">
            <path id="Path_5173" data-name="Path 5173" d="M562.49,683.343a.931.931,0,0,0,.341-1.8,10.358,10.358,0,0,1-4.916-4.094.931.931,0,1,0-1.576.99,12.234,12.234,0,0,0,5.807,4.835A.984.984,0,0,0,562.49,683.343Z" transform="translate(-556.196 -677.02)" fill="#f7bc94"/>
          </g>
          <g id="Group_6488" data-name="Group 6488" transform="translate(194.802 260.295)">
            <path id="Path_5174" data-name="Path 5174" d="M558.059,688.3c.029,0,.055,0,.081,0a3.437,3.437,0,0,0,2.777-2.2,5.924,5.924,0,0,0,.239-3.166.944.944,0,0,0-1.064-.775.931.931,0,0,0-.775,1.067,4.066,4.066,0,0,1-.126,2.17,1.615,1.615,0,0,1-1.209,1.046.93.93,0,0,0,.076,1.858Z" transform="translate(-557.131 -682.15)" fill="#f7bc94"/>
          </g>
          <g id="Group_6489" data-name="Group 6489" transform="translate(191.617 257.392)">
            <path id="Path_5175" data-name="Path 5175" d="M556.85,687.6a.933.933,0,0,0,.731-.352,7.251,7.251,0,0,0,1.506-5.392.954.954,0,0,0-1.038-.807.933.933,0,0,0-.809,1.041,5.455,5.455,0,0,1-1.119,4,.93.93,0,0,0,.73,1.508Z" transform="translate(-555.919 -681.046)" fill="#f7bc94"/>
          </g>
          <g id="Group_6490" data-name="Group 6490" transform="translate(187.709 257.508)">
            <path id="Path_5176" data-name="Path 5176" d="M556.065,686.088a.931.931,0,0,0,.922-.807,5.619,5.619,0,0,0-.843-3.765.931.931,0,1,0-1.563,1.012,3.739,3.739,0,0,1,.562,2.5.93.93,0,0,0,.8,1.048C555.981,686.083,556.026,686.088,556.065,686.088Z" transform="translate(-554.431 -681.09)" fill="#f7bc94"/>
          </g>
          <path id="Path_5177" data-name="Path 5177" d="M535.3,665.612s5.426,8.437,1.574,11.291-11.225,1.944-17.484-5.549Z" transform="translate(-423.762 -448.773)" fill="#fbd3ae"/>
          <g id="Group_6492" data-name="Group 6492" transform="translate(66.255 157.128)">
            <path id="Path_5178" data-name="Path 5178" d="M555.971,702.816l-2.867-9.475s2.7-4.69-1.766-12.807c-3.531-6.424-16.417-17.069-21.751-29.794a13.249,13.249,0,0,0-16-7.3c-11.293,3.29-3.342,37.251,10.24,46.816s10.844,21.013,18.115,21.851S556.331,704.014,555.971,702.816Z" transform="translate(-508.208 -642.887)" fill="#2b2e4e"/>
            <g id="Group_6491" data-name="Group 6491" transform="translate(29.822 52.493)">
              <path id="Path_5179" data-name="Path 5179" d="M519.692,668.346a.937.937,0,0,0,.94.439,26.811,26.811,0,0,0,10.773-4.217.888.888,0,0,0,.252-1.29.925.925,0,0,0-1.29-.252,24.9,24.9,0,0,1-10.022,3.918.932.932,0,0,0-.654,1.4Z" transform="translate(-519.558 -662.865)" fill="#1d1f38"/>
            </g>
          </g>
          <g id="Group_6493" data-name="Group 6493" transform="translate(93.959 224.072)">
            <path id="Path_5180" data-name="Path 5180" d="M518.844,676.282a1.461,1.461,0,0,0,1.542.765,64.014,64.014,0,0,0,21.352-5.938c.893-.423,1.435-1.372.98-2.034a1.683,1.683,0,0,0-2.257-.494A59.592,59.592,0,0,1,520.6,674.1a1.992,1.992,0,0,0-1.845,1.634A1.177,1.177,0,0,0,518.844,676.282Z" transform="translate(-518.752 -668.365)" fill="#8c5d5e"/>
          </g>
          <path id="Path_5181" data-name="Path 5181" d="M525.784,598.8s4.023,25.466-4.425,39.427l28.417-.5a2.561,2.561,0,0,1-2.144-1.587c-.977-2.459-.67-8.968,3.495-9.785C551.127,626.359,529.4,615.641,525.784,598.8Z" transform="translate(-420.55 -557.508)" fill="#fbd3ae"/>
          <g id="Group_5796" data-name="Group 5796" transform="translate(112.93 53.383)">
            <path id="Path_3437" data-name="Path 3437" d="M532.328,615.927a.95.95,0,0,1-.71-.215,16.224,16.224,0,0,1-5.647-11.356.987.987,0,0,1,.964-.951.957.957,0,0,1,.951.962v0a14.52,14.52,0,0,0,4.958,9.867.957.957,0,0,1,.118,1.348h0A.935.935,0,0,1,532.328,615.927Z" transform="translate(-525.972 -603.404)" fill="#f7bc94"/>
          </g>
        </g>
        <g id="Group_6496" data-name="Group 6496" transform="translate(182.534 246.353)">
          <g id="Group_5812" data-name="Group 5812" transform="translate(0 0)">
            <path id="Path_3464" data-name="Path 3464" d="M571.058,677.887a.973.973,0,0,1-.873.885l-16.753,1.3a.918.918,0,0,1-.97-.865v-.029a.993.993,0,0,1,.878-1.033l16.753-1.3a.912.912,0,0,1,.967.854l0,.042Z" transform="translate(-552.462 -676.844)"/>
          </g>
          <g id="Group_5773" data-name="Group 5773" transform="translate(7.78 2.161)">
            <path id="Path_3370" data-name="Path 3370" d="M655.947,702.535c5.664.016,11.308-.127,16.74-.423.294-.019.5-.151.461-.3s-.293-.244-.6-.225c-.855.057-86.091,5.256-116.1-23.781a.878.878,0,0,0-.722-.117c-.3.109-.379.234-.236.353,15.866,15.358,46.9,21.083,70.138,23.18C635.061,702.086,645.432,702.534,655.947,702.535Z" transform="translate(-555.422 -677.667)"/>
          </g>
        </g>
      </g>
      <g id="Group_6508" data-name="Group 6508" transform="translate(428.558 637)">
        <g id="Group_6507" data-name="Group 6507" transform="translate(0 223.27)">
          <path id="Path_5250" data-name="Path 5250" d="M556.964,361.745c7.477,18.84,31.4,29.9,40.073,39.176s13.756,25.12,7.775,39.474-21.083,14.8-23.326,17.345-4.935,10.168-10.467,12.56l-48.746.15s2.691-4.935,4.037-6.131,7.626-4.187,11.513-2.243,19.439,1.645,23.925-2.242-9.121-27.887-20.111-42.69c-14.889-20.054,4.785-19.588,8.074-21.083,0,0-10.99-17.345-16.373-18.84-8.672,14.653-9.42,62.016-12.56,71.884s-10.99,19.289-16.934,21.083c-.56-.112-12.784.112-14.467-.112-.449-2.018,4.711-12,6.953-12s4.71.785,9.2-2.355c18.615-24,6.5-91.734-2.692-106.537Z" transform="translate(-484.922 -234.19)" fill="#2c2c2c"/>
          <path id="Path_5251" data-name="Path 5251" d="M496.246,501.728a.232.232,0,0,1-.072-.012.225.225,0,0,1-.14-.285c.291-.847,2.887-8.3,4.615-8.994a.224.224,0,1,1,.166.417c-1.3.52-3.586,6.474-4.357,8.724A.224.224,0,0,1,496.246,501.728Z" transform="translate(-486.406 -266.066)"/>
          <path id="Path_5252" data-name="Path 5252" d="M648.865,444.783c15.551,17.046,54.128-2.094,64.3-22.13,1.2,2.991-2.991,13.757-2.991,13.757,2.991-2.094,3.589-2.393,2.991.3s-3.589,23.027-19.738,29.606c4.785-.3,9.271-4.486,8.374-2.094s-14.056,14.953-32.9,11.963a37.7,37.7,0,0,1-26.616-18.242Z" transform="translate(-518.956 -250.54)" fill="#606060"/>
          <path id="Path_5253" data-name="Path 5253" d="M698.956,447.026c2.692-.449,4.636-2.392,4.037-.9s-11.214,16.6-36.334,18.392c8.673.6,12.859-1.346,11.663.449s-21.83,4.635-32.6-4.784a30.337,30.337,0,0,0-3.284-2.553l-.155.31A37.7,37.7,0,0,0,668.9,476.184c18.84,2.99,32-9.57,32.9-11.963s-3.589,1.794-8.374,2.094c16.149-6.579,19.139-26.915,19.738-29.606s0-2.392-2.991-.3c0,0,4.186-10.766,2.991-13.757C713.162,424.447,706.882,440.3,698.956,447.026Z" transform="translate(-518.956 -250.54)" fill="#f6d6c9"/>
          <path id="Path_5254" data-name="Path 5254" d="M542.377,216.77c-2.766-4.635-11.588-12.709-19.139-12.411.9.673,2.392,1.869,2.318,2.468s-9.345,4.859-13.308,7.625-20.037-7.252-21.232-7.327-6.131,6.056-5.757,10.542l-.869,2.2s-.476,3.841-.449,4.795a19.668,19.668,0,0,0,2.215,8.224c-1.607,2.8-1.794,5.756-.672,6.056s3.588,2.878,14.13,5.346,12.86,10.391,12.112,17.046-4.935,19.513-10.093,35.213-3.589,22.2,5.607,37.008,25.121,65.941,6.5,89.94c-4.485,3.139-6.953,2.355-9.2,2.355s-7.4,9.981-6.953,12c1.682.224,13.906,0,14.467.112,5.944-1.794,13.794-11.214,16.934-21.083s-.3-45.194,8.373-59.848c5.383,1.5,7.476,7.775,7.476,7.775-3.289,1.5-6.28,9.869,4.187,23.925s25.419,34.989,20.933,38.877-20.036,4.187-23.924,2.242-10.167,1.047-11.513,2.243-4.037,6.131-4.037,6.131l48.746-.15c5.532-2.392,8.224-10.017,10.467-12.56s17.344-2.991,23.326-17.345.9-30.2-7.775-39.475-32.6-20.336-40.073-39.176-9.57-35.886-13.458-44.26-8.074-17.345-8.074-17.345-4.486-34.989-4.486-36.185S542.377,216.77,542.377,216.77Z" transform="translate(-483.717 -201.958)" fill="#606060"/>
          <path id="Path_5255" data-name="Path 5255" d="M512.846,228.7c-4.99-3.475.005-12.468,7.011-17.819a82.656,82.656,0,0,0-7.609,4.361c-3.963,2.766-20.037-7.252-21.232-7.327s-6.131,6.056-5.757,10.542l-.869,2.2s-.476,3.841-.449,4.795a19.668,19.668,0,0,0,2.215,8.224c-1.607,2.8-1.794,5.756-.672,6.056s3.588,2.878,14.13,5.346,12.86,10.392,12.112,17.046-4.935,19.513-10.093,35.213-3.589,22.2,5.607,37.008a89.614,89.614,0,0,1,7.562,17.067l.064-.021c-5.607-17.719-3.14-37.232,4.261-61.455s7.514-28.821,6.056-43.063S519.126,233.078,512.846,228.7Z" transform="translate(-483.717 -202.752)" fill="#f6d6c9"/>
          <path id="Path_5256" data-name="Path 5256" d="M518.332,286.846c5.308,1.57,23.849-1.122,29.082-3.813s-3.364-5.008-3.364-5.008Z" transform="translate(-491.371 -218.354)" fill="#ebbeb0" style="mix-blend-mode: multiply;isolation: isolate"/>
          <path id="Path_5257" data-name="Path 5257" d="M516.1,285.743c10.056-.112,21.607-5.046,26.092-7.962s.113-5.047.113-5.047l-2.468,1.794c-.673,1.683-16.037,7.963-24.186,6.8l-5.084-1.084s-3.813.9-3.589,1.514.729,2.972,1.066,3.252a7.5,7.5,0,0,0,2.971.953A36.479,36.479,0,0,0,516.1,285.743Z" transform="translate(-488.843 -217.177)" fill="#f54d71"/>
          <path id="Path_5258" data-name="Path 5258" d="M556.995,218.979c-9.467,1.272-21.74,35.262-1.352,55.4a2.336,2.336,0,0,0,3.968-1.4c.909-7.965,4.516-21.731,6.056-24.694,1.944-3.738-1.794-7.027-4.187-10.765S559.537,220.176,556.995,218.979Z" transform="translate(-497.213 -205.214)" fill="#2c2c2c"/>
          <path id="Path_5259" data-name="Path 5259" d="M563.278,253.815a.225.225,0,0,1-.191-.1c-1.573-2.5-3.739-7.957-.581-16.459a.224.224,0,0,1,.421.156c-3.091,8.321-.988,13.636.54,16.063a.224.224,0,0,1-.19.344Z" transform="translate(-500.842 -209.248)" fill="#606060"/>
          <ellipse id="Ellipse_452" data-name="Ellipse 452" cx="3" cy="1.234" rx="3" ry="1.234" transform="matrix(0.551, -0.834, 0.834, 0.551, 33.399, 20.122)"/>
          <path id="Path_5260" data-name="Path 5260" d="M528.486,230.217a4.125,4.125,0,0,1-2.06-.578.224.224,0,1,1,.224-.389,3.306,3.306,0,0,0,4.741-1.265.224.224,0,1,1,.387.227A3.8,3.8,0,0,1,528.486,230.217Z" transform="translate(-493.147 -207.193)"/>
          <path id="Path_5261" data-name="Path 5261" d="M499.414,244.606a14.935,14.935,0,0,1-11.018-4.445c-5.762-6.094-5.436-14.863-3.4-18.871a.224.224,0,1,1,.4.2c-1.976,3.894-2.286,12.423,3.328,18.36,5.634,5.959,15.25,4.981,19.664,1.657a.224.224,0,1,1,.27.358A15.88,15.88,0,0,1,499.414,244.606Z" transform="translate(-483.654 -205.7)"/>
          <path id="Path_5262" data-name="Path 5262" d="M517.417,249.084a.225.225,0,0,1-.2-.332,5.72,5.72,0,0,0,.289-4.565,2.437,2.437,0,0,0-1.767-1.445.224.224,0,0,1,.1-.438,2.9,2.9,0,0,1,2.079,1.7,6.127,6.127,0,0,1-.3,4.966A.224.224,0,0,1,517.417,249.084Z" transform="translate(-490.756 -210.403)"/>
          <path id="Path_5263" data-name="Path 5263" d="M491.387,217.266c1.861,1.34,9.508-.287,12.523-3.33-5.636-2.291-11.8-5.971-12.523-6.016-1.2-.075-6.131,6.056-5.757,10.542h0C487.2,218.387,489.518,215.92,491.387,217.266Z" transform="translate(-484.089 -202.752)" fill="#2c2c2c"/>
          <path id="Path_5264" data-name="Path 5264" d="M494,218.024h-.015a.224.224,0,0,1-.209-.238c0-.016.083-1.533-1.043-2.023a2.428,2.428,0,0,0-1.571-.026,1.6,1.6,0,0,1-1.638-.246.224.224,0,0,1,.317-.317c.3.3.648.249,1.227.124a2.861,2.861,0,0,1,1.844.053,2.569,2.569,0,0,1,1.312,2.464A.223.223,0,0,1,494,218.024Z" transform="translate(-484.946 -204.352)"/>
          <circle id="Ellipse_453" data-name="Ellipse 453" cx="0.589" cy="0.589" r="0.589" transform="translate(4.261 19.251)" fill="#e6b68e"/>
          <circle id="Ellipse_454" data-name="Ellipse 454" cx="0.589" cy="0.589" r="0.589" transform="translate(2.13 17.177)" fill="#e6b68e"/>
          <circle id="Ellipse_455" data-name="Ellipse 455" cx="0.589" cy="0.589" r="0.589" transform="translate(7.961 17.177)" fill="#e6b68e"/>
          <circle id="Ellipse_456" data-name="Ellipse 456" cx="0.589" cy="0.589" r="0.589" transform="translate(7.176 24.915)" fill="#e6b68e"/>
          <circle id="Ellipse_457" data-name="Ellipse 457" cx="0.589" cy="0.589" r="0.589" transform="translate(2.522 24.915)" fill="#e6b68e"/>
          <path id="Path_5265" data-name="Path 5265" d="M540.639,207.338l-.034,0a.224.224,0,0,1-.19-.211c-.078-1.693-.836-5.612-6.272-5.393a.227.227,0,0,1-.233-.215.225.225,0,0,1,.215-.233c4.759-.192,6.171,2.7,6.579,4.608a4.744,4.744,0,0,0-.973-4.15.224.224,0,0,1,.317-.317c2.1,2.1.854,5.618.8,5.767A.225.225,0,0,1,540.639,207.338Z" transform="translate(-494.838 -201.273)" fill="#2c2c2c"/>
          <path id="Path_5266" data-name="Path 5266" d="M560.138,404.46s4.486-6.728,23.177-6.28c-1.2-2.094-17.794-16.747-22.429-15.551s-3.738,7.327-8.224,14.056C558.045,398.181,560.138,404.46,560.138,404.46Z" transform="translate(-499.011 -241.618)" fill="#f6d6c9"/>
          <path id="Path_5267" data-name="Path 5267" d="M508.363,501.728a.236.236,0,0,1-.073-.012.225.225,0,0,1-.139-.285c.29-.847,2.887-8.3,4.615-8.994a.224.224,0,0,1,.166.417c-1.3.52-3.586,6.474-4.357,8.724A.224.224,0,0,1,508.363,501.728Z" transform="translate(-489.103 -266.066)" fill="#2c2c2c"/>
          <path id="Path_5268" data-name="Path 5268" d="M549.328,503.022a.224.224,0,0,1-.171-.368c.164-.2.34-.407.524-.63,1.845-2.23,4.632-5.6,7.3-5.281a.225.225,0,0,1,.2.25.223.223,0,0,1-.25.2c-2.429-.294-5.119,2.965-6.9,5.12-.185.224-.361.436-.526.633A.225.225,0,0,1,549.328,503.022Z" transform="translate(-498.219 -267.024)" fill="#2c2c2c"/>
          <g id="Group_6506" data-name="Group 6506" transform="translate(19.737 68.779)">
            <path id="Path_5269" data-name="Path 5269" d="M514.764,293.316l-.224.442s-.1.557-.083.582.352.358.352.358l.192.019a.549.549,0,0,0,.044-.224c0-.134.007-1.126.007-1.126Z" transform="translate(-510.246 -290.536)" fill="#6e6e6e"/>
            <path id="Path_5270" data-name="Path 5270" d="M519.442,294.011c0-1.322-.722-2.393-1.614-2.393l-.845-.054-.769,2.447a3.556,3.556,0,0,0,.028.413h-1.557a1.083,1.083,0,0,0,.274-.76c0-.505-.277-.916-.617-.916l-.5-.04.083.274a1.146,1.146,0,0,0-.205.682,1.083,1.083,0,0,0,.273.76H512.44a3.438,3.438,0,0,0,.029-.413c0-1.322-.722-2.393-1.614-2.393s-1.614,1.071-1.614,2.393a3.02,3.02,0,0,0,.5,1.723,3.02,3.02,0,0,0-.5,1.723c0,1.322.723,2.393,1.614,2.393s1.614-1.071,1.614-2.393a3.451,3.451,0,0,0-.029-.413h3.8a3.57,3.57,0,0,0-.028.413c0,1.322.723,2.393,1.614,2.393s1.614-1.071,1.614-2.393a3.028,3.028,0,0,0-.5-1.723A3.028,3.028,0,0,0,519.442,294.011Z" transform="translate(-509.086 -290.146)" fill="#828282"/>
            <path id="Path_5271" data-name="Path 5271" d="M518.422,293.957c0-1.322-.665-2.393-1.484-2.393s-1.485,1.071-1.485,2.393a3.987,3.987,0,0,0,.026.413h-1.43a1.145,1.145,0,0,0,.251-.76c0-.506-.254-.916-.568-.916s-.568.41-.568.916a1.142,1.142,0,0,0,.251.76h-1.432a3.757,3.757,0,0,0,.027-.413c0-1.322-.664-2.393-1.484-2.393s-1.484,1.071-1.484,2.393a3.217,3.217,0,0,0,.458,1.723,3.216,3.216,0,0,0-.458,1.723c0,1.322.665,2.393,1.484,2.393s1.484-1.071,1.484-2.393a3.744,3.744,0,0,0-.027-.413h3.5a3.985,3.985,0,0,0-.026.413c0,1.322.665,2.393,1.485,2.393s1.484-1.071,1.484-2.393a3.216,3.216,0,0,0-.458-1.723A3.217,3.217,0,0,0,518.422,293.957Zm-4.691-.85c.173,0,.312.225.312.5s-.139.5-.312.5-.312-.225-.312-.5S513.56,293.107,513.731,293.107Z" transform="translate(-509.041 -290.146)" fill="#cacaca"/>
            <rect id="Rectangle_1650" data-name="Rectangle 1650" width="0.312" height="3.159" transform="translate(4.535)" fill="#f54d71"/>
          </g>
        </g>
        <g id="Group_6474" data-name="Group 6474" transform="translate(103.194 0)">
          <path id="Path_5118" data-name="Path 5118" d="M860.722,619.7s.221,64.016-15.369,81.833c-6.314,7.218-18.706,65-23.538,54.906-4.735-9.888,8.952-114.7,17.954-129.29S861.426,612.914,860.722,619.7Z" transform="translate(-737.427 -521.18)" fill="#fbd3ae"/>
          <path id="Path_5119" data-name="Path 5119" d="M829.3,642.887l2.464,8.766a12,12,0,0,1-.512,7.956l-4.922,11.548,53.92-4.879-3.211-6.364a10.083,10.083,0,0,1-.368-8.261l4.317-10.87Z" transform="translate(-728.5 -479.515)" fill="#fbd3ae"/>
          <path id="Path_5120" data-name="Path 5120" d="M907.607,819.169a2.386,2.386,0,0,0,3.634.116c2.759-2.654,3.182-6.24,7.3-8.361s4.743-7.649,7.772-12.612,10.608-17.15,5.773-19.652c-15.813-8.185-49.262-51.322-64.547-70.188L841.473,730.2s76.352,40.275,75.966,57.967C917.081,804.381,904.135,815.07,907.607,819.169Z" transform="translate(-703.856 -369.344)" fill="#fbd3ae"/>
          <path id="Path_5121" data-name="Path 5121" d="M789.107,803.671a2.386,2.386,0,0,0,2.488,2.651c3.826.074,7.362-.328,11.777,1.088s8.059-3.889,13.713-5.258,13.537.68,17.773-2.741,5.909-30.908,31.749-74.915l-22.348-2.938s-14.362,57-30.522,71.155C801.538,803.4,789.551,798.318,789.107,803.671Z" transform="translate(-789.093 -348.044)" fill="#fbd3ae"/>
          <g id="Group_6459" data-name="Group 6459" transform="translate(37.186 438.491)">
            <path id="Path_5122" data-name="Path 5122" d="M804.184,751.744a.933.933,0,0,1-.518-1.708l5.371-3.592a.933.933,0,0,1,1.038,1.55l-5.376,3.592A.928.928,0,0,1,804.184,751.744Z" transform="translate(-803.251 -746.287)" fill="#f7bc94"/>
          </g>
          <g id="Group_6460" data-name="Group 6460" transform="translate(216.912 406.31)">
            <path id="Path_5123" data-name="Path 5123" d="M872.671,741.048a.822.822,0,0,1-.179-.016.934.934,0,0,1-.739-1.093,11.515,11.515,0,0,0-.079-4.758.929.929,0,0,1,.7-1.111.913.913,0,0,1,1.117.7,13.425,13.425,0,0,1,.095,5.528A.933.933,0,0,1,872.671,741.048Z" transform="translate(-871.651 -734.04)" fill="#f7bc94"/>
          </g>
          <path id="Path_5124" data-name="Path 5124" d="M951.878,841.35c-.336.484-.67,1.043-1.043,1.563-1.416,2.123-2.98,4.433-4.543,6.632-.336.52-.709,1.043-1.043,1.527-1.789,2.5-3.466,4.842-4.769,6.629-.15.223-.3.41-.447.633a3.241,3.241,0,0,1-.783.82,4.4,4.4,0,0,1-4.656.633c-59.819-26.52-56.729-88.912-53.71-110.179-7.562,33.969-39.708,109.4-43.061,115.582-.41.744-2.123,1.154-4.543,1.227a15.913,15.913,0,0,1-1.937.039,98.271,98.271,0,0,1-14.268-1.566c-.633-.15-1.266-.26-1.863-.41a45.8,45.8,0,0,1-5.176-1.3,14.565,14.565,0,0,1-1.789-.6,6.067,6.067,0,0,1-2.383-1.34c-5.81-6.892,49.094-186.019,52.67-198.794,1.787-6.445,5.289-9.2,8.119-10.392a14.738,14.738,0,0,1,2.2-.71,10.4,10.4,0,0,1,2.086-.184s1.861-.187,4.767-.447c.6-.039,1.23-.076,1.9-.15,1.863-.15,4.06-.336,6.369-.523.6-.037,1.23-.074,1.863-.11,2.346-.187,4.806-.373,7.226-.523.633-.037,1.266-.074,1.863-.11h.037c2.012-.113,3.912-.223,5.736-.3.633,0,1.266-.037,1.863-.037a56.575,56.575,0,0,1,8.046.15,2.526,2.526,0,0,1,.52.15,4.849,4.849,0,0,1,2.05,1.49c6.332,6.89,12.478,33.039,13.968,43.058,1.713,11.362,1.34,30.842-2.943,63.882-2.866,22.087.037,40.9,17.545,63.025,6.705,8.453,8.119,8.379,14.081,12.962C956.347,834.048,954.521,837.253,951.878,841.35Z" transform="translate(-762.513 -466.3)"/>
          <path id="Path_5125" data-name="Path 5125" d="M804.684,751.5s-16.125.008-15.571,4.877,15.671,4.6,20.808,3.471c6.009-1.327,26.391-1.913,25.966-9.1C835.794,749.237,804.684,761.311,804.684,751.5Z" transform="translate(-789.099 -300.75)"/>
          <path id="Path_5126" data-name="Path 5126" d="M872.633,760.806s-9.451,13.012-5.268,15.563,13.256-9.546,15.513-14.3c2.643-5.557,15.211-22.681,9.278-26.754C890.905,734.459,880.379,766.828,872.633,760.806Z" transform="translate(-663.454 -325.677)"/>
          <g id="Group_6461" data-name="Group 6461" transform="translate(45.734 185.044)">
            <path id="Path_5127" data-name="Path 5127" d="M867.109,649.831c-11.138,33.039-19.37,63.1-28.049,94.761-2.57,9.425-5.176,18.847-7.859,28.459-2.346,8.269-4.953,16.648-7.486,24.767-6.482,20.711-13.188,42.054-15.421,63.845a14.553,14.553,0,0,1-1.789-.6c2.273-21.827,8.942-43.132,15.421-63.805,2.533-8.082,5.142-16.464,7.489-24.7,2.68-9.609,5.25-19.071,7.859-28.457,8.566-31.252,16.724-60.976,27.637-93.568A14.735,14.735,0,0,1,867.109,649.831Z" transform="translate(-806.504 -649.831)" fill="#f9ede6"/>
          </g>
          <g id="Group_6462" data-name="Group 6462" transform="translate(52.699 184.264)">
            <path id="Path_5128" data-name="Path 5128" d="M871.547,649.534c-8.2,38.4-19.964,75.763-31.363,112.079-10.429,33.115-21.157,67.345-29.166,102.247-.633-.15-1.266-.26-1.863-.41,8.046-34.976,18.811-69.244,29.24-102.394,11.361-36.095,23.057-73.27,31.252-111.372C870.244,649.644,870.877,649.607,871.547,649.534Z" transform="translate(-809.155 -649.534)" fill="#f9ede6"/>
          </g>
          <g id="Group_6463" data-name="Group 6463" transform="translate(68.83 183.631)">
            <path id="Path_5129" data-name="Path 5129" d="M869.787,649.293c-3.5,53.227-17.171,96.287-30.433,137.929-7.9,24.92-16.091,50.62-22.124,78.556a15.913,15.913,0,0,1-1.937.039c6.106-28.16,14.339-54.086,22.274-79.153C850.753,745.17,864.385,702.3,867.924,649.4,868.521,649.367,869.154,649.33,869.787,649.293Z" transform="translate(-815.294 -649.293)" fill="#f9ede6"/>
          </g>
          <g id="Group_6464" data-name="Group 6464" transform="translate(127.012 182.997)">
            <path id="Path_5130" data-name="Path 5130" d="M888.391,857.455c-.15.223-.3.41-.447.633a3.243,3.243,0,0,1-.783.82c-19.928-10.915-35.832-30.953-44.808-56.469-6.035-17.058-5.179-33.373-4.286-50.657.336-6.519.673-13.259.673-20.114l-.076-9.349c-.15-24.287-.334-49.28,2.31-73.157.633-.037,1.266-.074,1.863-.11-2.646,23.914-2.459,48.944-2.31,73.231l.074,9.386c0,6.892-.334,13.671-.67,20.227-.893,17.058-1.713,33.223,4.172,49.911C853.006,827.1,868.687,846.8,888.391,857.455Z" transform="translate(-837.437 -649.052)" fill="#f9ede6"/>
          </g>
          <g id="Group_6465" data-name="Group 6465" transform="translate(138.142 182.661)">
            <path id="Path_5131" data-name="Path 5131" d="M887.309,849.508c-.336.52-.709,1.043-1.043,1.527a83.38,83.38,0,0,1-8.829-9.648c-1.6-1.937-3.279-3.983-5.029-5.883-12.7-13.858-20.6-27.006-25.627-42.614-4.766-14.748-3.613-33.449-2.643-49.95.334-5.4.67-10.539.781-15.419.3-14.044-.6-26.15-1.563-38.964-.93-12.292-1.9-24.957-1.64-39.595.633,0,1.266-.037,1.863-.037-.26,14.6.707,27.229,1.639,39.521.967,12.851,1.9,24.993,1.563,39.148-.15,4.879-.447,10.019-.783,15.458-.967,16.351-2.084,34.826,2.573,49.28,4.916,15.345,12.7,28.27,25.217,41.9,1.787,1.937,3.463,3.983,5.1,6A84.441,84.441,0,0,0,887.309,849.508Z" transform="translate(-841.673 -648.924)" fill="#f9ede6"/>
          </g>
          <g id="Group_6466" data-name="Group 6466" transform="translate(148.614 182.961)">
            <path id="Path_5132" data-name="Path 5132" d="M886.409,841.127c-.336.483-.67,1.043-1.043,1.563-25.18-24.88-40.712-51.663-35.2-100.607,3.686-32.816.781-53.786-2.31-75.987-.783-5.513-1.566-11.172-2.2-17.058a4.85,4.85,0,0,1,2.05,1.49c.6,5.289,1.3,10.355,2.013,15.345,3.09,22.313,6,43.358,2.31,76.434C846.591,790.32,861.789,816.73,886.409,841.127Z" transform="translate(-845.658 -649.038)" fill="#f9ede6"/>
          </g>
          <path id="Path_5133" data-name="Path 5133" d="M838.661,617.645s8.069.46,4.646,11.017c-.439,1.348-6.333.51-3.776,5.66,0,0-15.032,33.042,7.6,30.793,7.962-.793,20.514-28.69,18.051-32.763-4.751-7.862-5.923-28.93-5.923-28.93Z" transform="translate(-714.98 -540.321)" fill="#fbd3ae"/>
          <path id="Path_5134" data-name="Path 5134" d="M843.676,588.8s-11.74.828-10.836,22.676a21.353,21.353,0,0,1-3.143,10.319s-2.307,3.931,2.888,5.187c6.309,1.526,2.2,14.326,9.42,14.712,10.729.573,21.194-5.421,24.077-8.306S881.137,594.663,843.676,588.8Z" transform="translate(-723.853 -564.122)" fill="#fbd3ae"/>
          <path id="Path_5135" data-name="Path 5135" d="M832.3,601.328c.239,1.608,1.259,2.785,2.278,2.633s1.65-1.577,1.411-3.182-1.259-2.785-2.278-2.633S832.058,599.723,832.3,601.328Z" transform="translate(-718.869 -548.929)" fill="#292e4e"/>
          <path id="Path_5136" data-name="Path 5136" d="M839.792,598.571c-.076-.78-5.944-3.508-7.841-2.149C829.416,598.234,840.049,601.2,839.792,598.571Z" transform="translate(-719.989 -552.323)" fill="#2b2e4e"/>
          <g id="Group_6467" data-name="Group 6467" transform="translate(112.273 61.735)">
            <path id="Path_5137" data-name="Path 5137" d="M832.756,608.029a.931.931,0,0,1-.079-1.858c.108-.013,2.693-.273,3.211-2.541a.929.929,0,1,1,1.813.41c-.82,3.613-4.7,3.973-4.869,3.986Z" transform="translate(-831.828 -602.902)" fill="#f46041"/>
          </g>
          <path id="Path_5138" data-name="Path 5138" d="M844.716,588.192s-11.33,1.863-14.278,9,1.708,10.71,8.537,7.914,6.685,4.309,12.965.68,2.74,5.232,10.308,17.169c2.525,3.983,2.635,8.926,5.016,9.16,6.222.607,13.23-11.559,14.131-17.008C883.254,603.829,884.3,580.052,844.716,588.192Z" transform="translate(-723.284 -567.818)" fill="#2b2e4e"/>
          <path id="Path_5139" data-name="Path 5139" d="M840.728,603.784c0-3.941-2.362-7.139-5.279-7.139s-5.276,3.2-5.276,7.139,2.362,7.139,5.276,7.139S840.728,607.728,840.728,603.784Z" transform="translate(-722.247 -551.351)" fill="#2b2e4e"/>
          <path id="Path_5140" data-name="Path 5140" d="M841.775,591.746a11.807,11.807,0,1,0,11.792-12.339A12.073,12.073,0,0,0,841.775,591.746Z" transform="translate(-703.364 -579.407)" fill="#2b2e4e"/>
          <g id="Group_6468" data-name="Group 6468" transform="translate(117.204 44.574)">
            <path id="Path_5141" data-name="Path 5141" d="M834.637,602.654a.931.931,0,0,1-.231-1.834l17.3-4.417a.925.925,0,0,1,1.132.67.935.935,0,0,1-.673,1.135l-17.3,4.417A.965.965,0,0,1,834.637,602.654Z" transform="translate(-833.704 -596.371)" fill="#2b2e4e"/>
          </g>
          <path id="Path_5142" data-name="Path 5142" d="M839.754,602.011s2.092-8.589,8.76-6.251,1.025,14.812-4.144,15.587S839.754,602.011,839.754,602.011Z" transform="translate(-706.682 -553.448)" fill="#fbd3ae"/>
          <g id="Group_6469" data-name="Group 6469" transform="translate(135.631 44.123)">
            <path id="Path_5143" data-name="Path 5143" d="M841.65,601.24a.931.931,0,0,1-.857-1.3c.15-.344,1.527-3.379,3.865-3.71a3.784,3.784,0,0,1,3.453,1.7.931.931,0,0,1-1.437,1.182c-.633-.767-1.248-1.133-1.755-1.041-1.035.145-2.076,1.818-2.415,2.6A.93.93,0,0,1,841.65,601.24Z" transform="translate(-840.717 -596.199)" fill="#f7bc94"/>
          </g>
          <path id="Path_5144" data-name="Path 5144" d="M855.5,614.955s-21.241,6.277-21.84,13.572-6.808,29.576-7.273,37.487c-.378,6.424,1.025,22.66,4.32,28.425a3.513,3.513,0,0,0,2.953,1.834c4.832,0,42.1,2.026,44.188-1s28.856-61.8,23.772-73c0,0-12.725-9.867-24.534-10.1A339.742,339.742,0,0,0,853.7,649.332C851.452,627.751,855.5,614.955,855.5,614.955Z" transform="translate(-728.507 -526.083)" fill="#e1644c"/>
          <g id="Group_6473" data-name="Group 6473" transform="translate(54.502 94.621)">
            <path id="Path_5145" data-name="Path 5145" d="M929.065,619.933c.7-6.782-11.95-7.139-20.952,7.449-7.208,11.685-7.339,37.874-12.258,50.016-.045.11-.089.231-.134.344-.068.16-.126.344-.194.5l0,.013c-1.348,3.589-2.651,8.542-3.87,11.638-2.1,5.329-42.992,7.751-65.153,14.507-10.986,3.35-17.116,11.569-16.633,13.669s5.329-3.631,5.329-3.631c-10.332,18-4.2,22.768,9.367,5.329s65.663-.977,78.614-9.034,20.272-54.74,20.272-54.74l-.005-.013A293.844,293.844,0,0,0,929.065,619.933Z" transform="translate(-809.841 -615.418)" fill="#fbd3ae"/>
            <g id="Group_6470" data-name="Group 6470" transform="translate(2.765 103.995)">
              <path id="Path_5146" data-name="Path 5146" d="M812.107,664.66a1.072,1.072,0,0,1-.862-.444l-.352-.52.36-.712,4.546-7.523a.969.969,0,0,1,1.658,1l-4.336,7.173a1.025,1.025,0,0,1-.018.2,1.091,1.091,0,0,1-.812.8A.854.854,0,0,1,812.107,664.66Z" transform="translate(-810.893 -654.996)" fill="#f7bc94"/>
            </g>
            <g id="Group_6471" data-name="Group 6471" transform="translate(1.417 104.17)">
              <path id="Path_5147" data-name="Path 5147" d="M811.347,662.82a1,1,0,0,1-.229-.029.967.967,0,0,1-.709-1.172,24.706,24.706,0,0,1,2.357-6.054.97.97,0,1,1,1.7.935,22.864,22.864,0,0,0-2.178,5.581A.967.967,0,0,1,811.347,662.82Z" transform="translate(-810.38 -655.063)" fill="#f7bc94"/>
            </g>
            <g id="Group_6472" data-name="Group 6472" transform="translate(82.337 75.202)">
              <path id="Path_5148" data-name="Path 5148" d="M844.58,648.14a1,1,0,0,1-.46-.116,8,8,0,0,1-2.767-2.459.968.968,0,1,1,1.584-1.114,6.117,6.117,0,0,0,2.1,1.866.97.97,0,0,1-.457,1.824Z" transform="translate(-841.177 -644.038)" fill="#f7bc94"/>
            </g>
          </g>
        </g>
        <g id="Group_6495" data-name="Group 6495" transform="translate(64.863 189.947)">
          <g id="Group_5812-2" data-name="Group 5812" transform="translate(97.627 0)">
            <path id="Path_3464-2" data-name="Path 3464" d="M825.506,657.457a.77.77,0,0,1-.919.344l-12.463-4.651a.727.727,0,0,1-.407-.943l.011-.021a.783.783,0,0,1,.972-.449l12.462,4.651a.721.721,0,0,1,.41.933l-.013.032Z" transform="translate(-811.666 -651.697)"/>
          </g>
          <g id="Group_5813" data-name="Group 5813" transform="translate(0 3.974)">
            <path id="Path_3465" data-name="Path 3465" d="M766.087,729.116c-10.117,4.639-16.939,7.174-17.064,7.221-.3.112-.578.049-.615-.139s.17-.427.49-.546c.893-.327,89.327-33.468,104.634-81.964a.859.859,0,0,1,.666-.472c.3-.043.485.1.417.315-8.095,25.647-36.394,46.806-58.709,60.036A324.005,324.005,0,0,1,766.087,729.116Z" transform="translate(-748.404 -653.209)"/>
          </g>
        </g>
      </g>
    </g>
  </g>
</svg>
