<svg xmlns="http://www.w3.org/2000/svg" xmlns:xlink="http://www.w3.org/1999/xlink" width="389.398" height="201" viewBox="0 0 389.398 201">
  <defs>
    <filter id="Path_2742" x="208.858" y="23.35" width="170.709" height="173.908" filterUnits="userSpaceOnUse">
      <feOffset dx="10" dy="10" input="SourceAlpha"/>
      <feGaussianBlur stdDeviation="5" result="blur"/>
      <feFlood flood-opacity="0.161"/>
      <feComposite operator="in" in2="blur"/>
      <feComposite in="SourceGraphic"/>
    </filter>
  </defs>
  <g id="Group_5468" data-name="Group 5468" transform="translate(-49 -275.983)">
    <rect id="Rectangle_1627" data-name="Rectangle 1627" width="201" height="201" rx="30" transform="translate(237.398 275.983)" fill="#2c2c2c"/>
    <text id="Lovers" transform="translate(67.468 441.123)" fill="#2c2c2c" font-size="44" font-family="CooperBlackStd, Cooper Std"><tspan x="0" y="0">Lovers</tspan></text>
    <g id="Group_6277" data-name="Group 6277" transform="translate(248.847 304.333)">
      <g transform="matrix(1, 0, 0, 1, -199.85, -28.35)" filter="url(#Path_2742)">
        <path id="Path_2742-2" data-name="Path 2742" d="M3186.819,1675.253c.023-.323.047-.646.065-.97.05-.954.081-1.891.081-2.8,0-.015,0-.029,0-.043v-.034c0-34.456-31.5-62.389-70.355-62.389s-70.354,27.933-70.354,62.389,31.5,62.389,70.354,62.389h.009v19.13c47.8-12.722,67.038-49.7,69.938-74.832.034-.27.058-.54.088-.81C3186.715,1676.6,3186.771,1675.922,3186.819,1675.253Z" transform="translate(-2832.4 -1580.67)" fill="#f54d71"/>
      </g>
      <path id="Path_2743" data-name="Path 2743" d="M3090.766,1697.375c-.767-8.567-8.459-15.033-17.519-14.721a15.656,15.656,0,0,0-12.875,7.67,16.193,16.193,0,0,0-.92,1.771,15.468,15.468,0,0,0-1.039-1.7,15.646,15.646,0,0,0-13.372-6.765c-9.057.311-16.289,7.29-16.463,15.889-.27,13.145,10.134,18.8,16.412,22.551,10.088,6.026,14.652,11.365,14.689,11.415a1.447,1.447,0,0,0,2.394-.082c.034-.052,4.22-5.693,13.869-12.4C3081.948,1716.828,3091.938,1710.47,3090.766,1697.375Z" transform="translate(-3028.572 -1624.309)" fill="#fff"/>
      <path id="Path_2744" data-name="Path 2744" d="M3190.785,1625.115h-41.22c-33.331,0-45.2,52.535-28.991,52.535a27.212,27.212,0,0,0,12.976-2.852v-23.912a2.29,2.29,0,1,1,4.58,0v25.992l-.64.667a25.822,25.822,0,0,0-1.038,34,25.7,25.7,0,0,0,19.808,9.312,2.818,2.818,0,0,0,.706-.1c2.093-.551,4.63-3.283,6.726-5.534a43.875,43.875,0,0,1,3.681-3.673c.15-.127.3-.25.452-.369v-8.869a13.561,13.561,0,1,1,15.881-13.355,13.562,13.562,0,0,1-11.184,13.355v8.869c.143.119.287.242.43.369a51.513,51.513,0,0,1,3.689,3.673c2.1,2.25,4.619,4.983,6.711,5.534a2.787,2.787,0,0,0,.706.1,25.7,25.7,0,0,0,19.814-9.312,25.848,25.848,0,0,0-1.029-34l-.627-.667v-25.992a2.3,2.3,0,0,1,4.59,0V1674.8a27.2,27.2,0,0,0,12.978,2.852C3235.98,1677.651,3224.1,1625.115,3190.785,1625.115Zm-24.908,34.443a4.5,4.5,0,0,1-4.485,4.317,4.487,4.487,0,1,1,0-8.974,4.5,4.5,0,0,1,4.485,4.488Zm16.443,2.76a4.44,4.44,0,0,1-3.284,1.545h-.1a4.485,4.485,0,0,1-4.485-4.318v-.17a4.52,4.52,0,0,1,4.5-4.474h.105a4.48,4.48,0,0,1,3.27,7.417Z" transform="translate(-3046.185 -1612.361)" fill="#fff"/>
    </g>
    <text id="Puppi" transform="translate(49 393.088)" fill="#2c2c2c" font-size="44" font-family="CooperBlackStd, Cooper Std"><tspan x="0" y="0">Puppi</tspan></text>
  </g>
</svg>
