<svg xmlns="http://www.w3.org/2000/svg" xmlns:xlink="http://www.w3.org/1999/xlink" width="45.704" height="33.955" viewBox="0 0 45.704 33.955">
  <defs>
    <filter id="Ellipse_359" x="0" y="12.035" width="45.704" height="21.92" filterUnits="userSpaceOnUse">
      <feOffset dy="1" input="SourceAlpha"/>
      <feGaussianBlur stdDeviation="1" result="blur"/>
      <feFlood flood-opacity="0.161"/>
      <feComposite operator="in" in2="blur"/>
      <feComposite in="SourceGraphic"/>
    </filter>
    <clipPath id="clip-path">
      <path id="Path_3196" data-name="Path 3196" d="M1567.706,527.726l.035-.193.015-.017.51-2.8a6.5,6.5,0,0,0-.945-4.711l-.678-1.043-.1-1.513-.127-4.517a3.042,3.042,0,0,0-.1-.782c.2-.171.417-.355.65-.552.334-.284.218-1.655.339-2.087.466-1.662.742-3.677-.43-4.569-1.11-.844-3.265,1.782-4.375,4.072l-.126-.029q-.143-.031-.289-.057l-.128-.021c-.1-.016-.2-.03-.306-.043l-.074-.009c-.115-.012-.232-.022-.35-.029l-.109-.006c-.125-.006-.251-.01-.378-.01h-.007c-.109,0-.214,0-.318.007l-.038,0q-.141.006-.279.017l-.028,0c-.1.008-.195.018-.291.03h-.006a7.42,7.42,0,0,0-.809.144c-1.1-2.3-3.285-4.986-4.406-4.134-1.172.891-.9,2.906-.43,4.569.121.432.005,1.8.339,2.087.246.209.472.4.684.582-.017.06-.031.119-.044.18,0,.014-.005.028-.008.043-.009.048-.018.1-.025.146,0,.021-.006.041-.008.062q-.009.067-.014.135c0,.019,0,.039,0,.058,0,.064-.007.128-.007.192v2.6l-.009,0c0,.006-4.166.3-4.166.3a9.019,9.019,0,0,0-6.657,5.459l-.542,1.257a7.112,7.112,0,0,0-.377,4.508l.051.19.037.139a1.933,1.933,0,0,0,.122.321,1.9,1.9,0,0,0,1.027.957l2.033.786,1.3.569a.66.66,0,0,0,.327.062l1.445-.054a.915.915,0,0,0,.846-.832l4.4.806c.284.683,3.184,1.74,4.979,1.9a.66.66,0,0,0,.523.2l1.445-.054a.915.915,0,0,0,.846-1l-.05-.513,1.156.079-.022.226a.915.915,0,0,0,.846,1l1.445.054a.659.659,0,0,0,.522-.2,1.631,1.631,0,0,0,.324-.4,1.991,1.991,0,0,0,1.774-.909A2.031,2.031,0,0,0,1567.706,527.726Z" transform="translate(-1543.085 -504.718)" fill="#6c5c5c"/>
    </clipPath>
  </defs>
  <g id="Group_13643" data-name="Group 13643" transform="translate(3)">
    <g id="Group_6422" data-name="Group 6422" transform="translate(0 14.034)">
      <g transform="matrix(1, 0, 0, 1, -3, -14.03)" filter="url(#Ellipse_359)">
        <ellipse id="Ellipse_359-2" data-name="Ellipse 359" cx="19.852" cy="7.96" rx="19.852" ry="7.96" transform="translate(3 14.03)" fill="#54b5cd"/>
      </g>
      <path id="Path_3321" data-name="Path 3321" d="M1111.757,267.091c-.306,0-1.306-1.039-1.606-1.024-4.921,1.22-7.484,4.4-7.484,6.827,0,2.092,2.422,3.965,6.241,5.223.369-4.6,4.357-5.282,9.06-5.486a13.959,13.959,0,0,1,4.1.414C1122.013,269.752,1117.418,267.091,1111.757,267.091Z" transform="translate(-1102.667 -264.372)" fill="#54b5cd"/>
      <path id="Path_3322" data-name="Path 3322" d="M1365.927,280.9a6.2,6.2,0,0,0-3.047,3.276c4.537.088,8.176,2.688,8.176,5.884a4.181,4.181,0,0,1-.138,1.062c1.667-1.165,2.62-2.516,2.62-3.955C1373.538,284.62,1370.56,282.354,1365.927,280.9Z" transform="translate(-1333.833 -279.201)" fill="#54b5cd"/>
    </g>
    <g id="Group_6289" data-name="Group 6289" transform="translate(6.663 0)">
      <g id="Group_5659" data-name="Group 5659" clip-path="url(#clip-path)">
        <path id="Path_3170" data-name="Path 3170" d="M1690.647,509.7c-1.069,2.343-.6,3.6.624,4.161s2-.159,3.961-1.828c.334-.284.218-1.655.339-2.087.466-1.662.742-3.677-.431-4.569C1693.99,504.5,1691.715,507.359,1690.647,509.7Z" transform="translate(-1671.362 -505.153)" fill="#6c5c5c"/>
        <path id="Path_3171" data-name="Path 3171" d="M1692.511,520.59c-.847,1.857-.478,2.854.494,3.3s1.068-2.763,3.072-2.374c.752.146.419-1.084.594-1.666.43-1.434.265-2.614-.35-3.08C1695.477,516.127,1693.358,518.733,1692.511,520.59Z" transform="translate(-1673.098 -515.148)" fill="#edc9b9"/>
        <path id="Path_3172" data-name="Path 3172" d="M1648.381,541.023c0-2.277-2.548-4.123-5.69-4.123s-5.691,1.846-5.691,4.123v4.123l11.508.394Z" transform="translate(-1625.058 -532.807)" fill="#f5eee4"/>
        <path id="Path_3173" data-name="Path 3173" d="M1632.008,509.2c1.069,2.343.6,3.6-.624,4.161s-2-.159-3.961-1.828c-.334-.284-.218-1.655-.339-2.088-.466-1.662-.742-3.677.43-4.569C1628.665,504,1630.939,506.86,1632.008,509.2Z" transform="translate(-1616.052 -504.718)" fill="#6c5c5c"/>
        <path id="Path_3174" data-name="Path 3174" d="M1637.342,520.09c.847,1.857.478,2.854-.494,3.3s-1.068-2.763-3.072-2.374c-.752.146-.419-1.084-.593-1.666-.43-1.434-.265-2.614.35-3.08C1634.376,515.627,1636.495,518.234,1637.342,520.09Z" transform="translate(-1621.516 -514.713)" fill="#edc9b9"/>
        <path id="Path_3175" data-name="Path 3175" d="M1567.655,601.781l-2.8,3.168-10.078-.689-5.722-1.049-1.49.927-3.143-1.216a1.9,1.9,0,0,1-1.149-1.278l-.088-.329a7.11,7.11,0,0,1,.377-4.508l.542-1.257a9.02,9.02,0,0,1,6.657-5.459l4.175-.29,11.508,1.913.1,1.513.678,1.043a6.5,6.5,0,0,1,.945,4.711Z" transform="translate(-1542.996 -578.984)" fill="#eddbd3"/>
        <path id="Path_3176" data-name="Path 3176" d="M1561.089,626.33c0,3.656-2.064,6.619-4.61,6.619s-7.979-7.28-7.979-10.936,5.434-2.3,7.979-2.3S1561.089,622.674,1561.089,626.33Z" transform="translate(-1547.811 -604.874)" fill="#e8e1d8"/>
        <path id="Path_3177" data-name="Path 3177" d="M1628.519,593.185l-.1-1.513-11.508-1.913-.023.578-.025,1.007-1.379,1.924a7.949,7.949,0,0,0,.113,9.417l1.155,1.532.111-.2v.208l9.966.681,2.711-2.707.6-3.258a6.5,6.5,0,0,0-.945-4.711Z" transform="translate(-1604.982 -578.945)" fill="#f5eee4"/>
        <path id="Path_3178" data-name="Path 3178" d="M1549.042,637.106c.2-2.117-1.709-3.955-4.218-4.059l-.61-.025q-.056.126-.108.254l-.542,1.257a7.109,7.109,0,0,0-.377,4.508l.088.329a1.9,1.9,0,0,0,1.149,1.278l2.033.786,1.3.569.87-.569Z" transform="translate(-1542.995 -616.706)" fill="#f5eee4"/>
        <path id="Path_3179" data-name="Path 3179" d="M1644.5,538.362a4.376,4.376,0,0,0,1.384-.753,7.265,7.265,0,0,0-3.191-.709,7.775,7.775,0,0,0-1.264.1c-.115.019-.228.041-.34.065l-.058.012q-.178.039-.351.087l-.024.007c-2.138.593-3.657,2.092-3.657,3.85v3.166a4.771,4.771,0,0,0,1.758.332,4.342,4.342,0,0,0,4.491-4.175q0-.09,0-.179a1.771,1.771,0,0,1,1.218-1.793Z" transform="translate(-1625.058 -532.807)" fill="#6c5c5c"/>
        <path id="Path_3180" data-name="Path 3180" d="M1667.024,573.1s-.241-.3-.489-.611a6.122,6.122,0,0,1-.726-1.181,2.808,2.808,0,0,0-5.128.208,6.175,6.175,0,0,1-.926,1.566l-.164.208a.845.845,0,0,0,.141,1.183l.356.28a1.606,1.606,0,0,0,1.789-.436c.563.53.826,1.011,1.662.935a2.932,2.932,0,0,0,1.466-.934,1.333,1.333,0,0,0,1.522.245l.356-.28A.845.845,0,0,0,1667.024,573.1Z" transform="translate(-1644.619 -561.47)" fill="#fff8f5"/>
        <path id="Path_3181" data-name="Path 3181" d="M1542.11,584.284a3.826,3.826,0,0,0-1.707-1.912,5.353,5.353,0,0,0-4.486-.194,6.311,6.311,0,0,0-2.152,1.3,4.906,4.906,0,0,0-4.039-.044c-2.147.766-3.539,2.362-3.109,3.566.3.84,1.406,1.267,2.776,1.188a2.583,2.583,0,0,0,.343-.052,4.831,4.831,0,0,1,4.2,1.125,3.256,3.256,0,0,0,1.261.778,5.952,5.952,0,0,0,3.448-.2C1541.314,588.883,1542.864,586.4,1542.11,584.284Z" transform="translate(-1528.644 -571.968)" fill="#6c5c5c"/>
        <path id="Path_3182" data-name="Path 3182" d="M1683.583,578.542c.047.46-1,.943-1,.943s-1.118-.263-1.165-.723.4-.882,1-.943A.986.986,0,0,1,1683.583,578.542Z" transform="translate(-1663.828 -568.517)" fill="#292525"/>
        <path id="Path_3183" data-name="Path 3183" d="M1633.184,685.131c.284.683,3.184,1.74,4.979,1.9.988.086,1.152-.49,1.51-.639,1.008-.419,1-1.211.1-1.915a10.856,10.856,0,0,0-5.555-2.017C1632.325,682.508,1632.744,684.072,1633.184,685.131Z" transform="translate(-1621.4 -659.853)" fill="#e8e1d8"/>
        <ellipse id="Ellipse_354" data-name="Ellipse 354" cx="1.786" cy="1.314" rx="1.786" ry="1.314" transform="translate(16.976 11.788)" fill="#f5ebe6"/>
        <path id="Path_6871" data-name="Path 6871" d="M3.131,0C4.861,0,6.263,1.893,6.263,4.228s-1.4,4.228-3.131,4.228S0,6.563,0,4.228,1.4,0,3.131,0Z" transform="translate(23.355 11.29)" fill="#6c5c5c"/>
        <path id="Path_3184" data-name="Path 3184" d="M1678.035,591.381c-.2-.084-.4-.17-.583-.267a2.1,2.1,0,0,1-.507-.348,1.278,1.278,0,0,1-.2-.266l-.038-.922a.084.084,0,0,0-.088-.081l-.051,0a.084.084,0,0,0-.08.089l.051.9a.089.089,0,0,1-.011.047,1.3,1.3,0,0,1-.208.284,2.1,2.1,0,0,1-.507.348c-.186.1-.382.183-.583.267s-.406.166-.607.271a2.936,2.936,0,0,0,.668-.08,2.543,2.543,0,0,0,.64-.234,1.537,1.537,0,0,0,.539-.449.971.971,0,0,0,.095-.169.083.083,0,0,1,.151-.008,1,1,0,0,0,.075.127,1.539,1.539,0,0,0,.539.449,2.55,2.55,0,0,0,.64.234,2.943,2.943,0,0,0,.669.08C1678.441,591.546,1678.235,591.465,1678.035,591.381Z" transform="translate(-1657.899 -578.716)" fill="#292525"/>
        <path id="Path_3185" data-name="Path 3185" d="M1635,582.637a6.2,6.2,0,0,1-.74-.044,9.345,9.345,0,0,1-3.253-.9,7.3,7.3,0,0,1-3.477-3.341,18.872,18.872,0,0,1-.816-1.765c-.1-.251-.195-.468-.279-.646l1.035-.489c.1.2.19.431.3.695a17.672,17.672,0,0,0,.767,1.662,6.174,6.174,0,0,0,2.977,2.858,8.33,8.33,0,0,0,2.882.787,5.111,5.111,0,0,0,3.275-.727,6.51,6.51,0,0,0,2.33-3.55c.066-.2.118-.363.174-.5l1.054.444c-.037.087-.084.234-.14.4a7.528,7.528,0,0,1-2.761,4.134A6.107,6.107,0,0,1,1635,582.637Z" transform="translate(-1615.833 -566.459)" fill="#f54d71"/>
        <path id="Path_3186" data-name="Path 3186" d="M1681.732,636.841a.545.545,0,0,0,.135-.451.552.552,0,0,0-.466-.459.546.546,0,0,0-.619.493h-1.773a.546.546,0,0,0-.618-.5.553.553,0,0,0-.469.463.543.543,0,0,0,.138.449.268.268,0,0,1,0,.353.545.545,0,0,0-.129.441.548.548,0,1,0,1.08-.186h1.787a.526.526,0,0,0,.036.334.547.547,0,0,0,1.048-.22.542.542,0,0,0-.152-.378A.244.244,0,0,1,1681.732,636.841Z" transform="translate(-1660.77 -619.232)" fill="#deaa52"/>
        <path id="Path_3187" data-name="Path 3187" d="M1690.806,629.639h-.191l-.366-1.741.994-.024Z" transform="translate(-1671.536 -612.214)" fill="#deaa52"/>
        <path id="Path_3188" data-name="Path 3188" d="M1671.9,701.082l1.445-.054a.915.915,0,0,0,.846-1l-.075-.768a.937.937,0,0,0-.383-.668l-.751-.265-.376.017a1.952,1.952,0,0,0-1.719,1.208,1.486,1.486,0,0,0,.49,1.33A.659.659,0,0,0,1671.9,701.082Z" transform="translate(-1654.615 -673.707)" fill="#fff8f5"/>
        <path id="Path_3189" data-name="Path 3189" d="M1651.148,659.334a1.138,1.138,0,0,0-1.431.526,1.116,1.116,0,0,0-.119.623.64.64,0,0,1-.273.586,1.126,1.126,0,1,0,1.474,1.687.469.469,0,0,1,.547-.11l5.234,2.549.829-1.735-5.244-2.553a.564.564,0,0,1-.322-.517A1.125,1.125,0,0,0,1651.148,659.334Z" transform="translate(-1635.399 -639.601)" fill="#deaa52"/>
        <path id="Path_3190" data-name="Path 3190" d="M1713.545,687.394c-.44,1.058-2.6,1.094-3.608.675s-1.019-.687-.579-1.745,2.149-2.024,3.157-1.6A2.028,2.028,0,0,1,1713.545,687.394Z" transform="translate(-1687.973 -661.742)" fill="#6c5c5c"/>
        <path id="Path_3191" data-name="Path 3191" d="M1707.818,699.946l-1.445-.054a.915.915,0,0,1-.846-1l.075-.768a.936.936,0,0,1,.383-.668l.659-.145a1.913,1.913,0,0,1,2.136.99c.018.038.036.076.052.115a1.485,1.485,0,0,1-.49,1.33A.66.66,0,0,1,1707.818,699.946Z" transform="translate(-1684.867 -672.779)" fill="#fff8f5"/>
        <path id="Path_3192" data-name="Path 3192" d="M1576.03,685.211l1.445-.054a.915.915,0,0,0,.846-1l-.075-.768a.938.938,0,0,0-.383-.668l-.751-.265-.376.017a1.952,1.952,0,0,0-1.719,1.208,1.485,1.485,0,0,0,.49,1.33A.66.66,0,0,0,1576.03,685.211Z" transform="translate(-1570.935 -659.854)" fill="#fff8f5"/>
        <path id="Path_3193" data-name="Path 3193" d="M1669.831,550.74c-.227-.057-.344-.368-.262-.694s.333-.545.56-.488.344.368.263.694S1670.058,550.8,1669.831,550.74Z" transform="translate(-1653.462 -543.848)" fill="#332727"/>
        <path id="Path_3194" data-name="Path 3194" d="M1694.794,549.421c-.215.091-.5-.085-.628-.4s-.063-.635.152-.727.5.085.628.4S1695.01,549.329,1694.794,549.421Z" transform="translate(-1674.895 -542.736)" fill="#c7b8b1"/>
        <path id="Path_3195" data-name="Path 3195" d="M1661.405,567.235a.652.652,0,1,1-.652-.622A.638.638,0,0,1,1661.405,567.235Z" transform="translate(-1645.221 -558.742)" fill="#291f1f"/>
        <ellipse id="Ellipse_356" data-name="Ellipse 356" cx="0.652" cy="0.622" rx="0.652" ry="0.622" transform="translate(20.547 7.71)" fill="#291f1f"/>
      </g>
    </g>
  </g>
</svg>
